<svg xmlns="http://www.w3.org/2000/svg" xmlns:xlink="http://www.w3.org/1999/xlink" viewBox="0 0 286.39 269.3"><defs><style>.cls-1{fill:#fff;opacity:0.81;}.cls-2{opacity:0.67;fill:url(#Безымянный_градиент_2);}.cls-3{opacity:0.26;fill:url(#Безымянный_градиент_2-2);}</style><linearGradient id="Безымянный_градиент_2" x1="262.04" y1="43.83" x2="-6.9" y2="269.92" gradientTransform="translate(281.92 11.61) rotate(87.84)" gradientUnits="userSpaceOnUse"><stop offset="0.13" stop-color="#27348b"/><stop offset="0.22" stop-color="#2c338b"/><stop offset="0.33" stop-color="#3c2e8a"/><stop offset="0.45" stop-color="#562788"/><stop offset="0.58" stop-color="#7a1d85"/><stop offset="0.72" stop-color="#a81182"/><stop offset="0.86" stop-color="#e0027e"/><stop offset="0.87" stop-color="#e6007e"/></linearGradient><linearGradient id="Безымянный_градиент_2-2" x1="315.59" y1="5.81" x2="-14.34" y2="283.18" gradientTransform="translate(350.4 218.82) rotate(154.61)" xlink:href="#Безымянный_градиент_2"/></defs><g id="Слой_2" data-name="Слой 2"><g id="Слой_1-2" data-name="Слой 1"><path class="cls-1" d="M166.19,256.67,66.88,221.28c-36.37-13-48.11-58.56-22.53-87.48L138,27.9c32.56-36.8,93.35-15.13,95.31,34L239,203.15C240.49,241.72,202.55,269.63,166.19,256.67Z"/><path class="cls-2" d="M208.79,89.67l3.48,92.38a47.79,47.79,0,0,1-63.9,46.79L31.67,187C-8.89,172.45-11,115.9,28.32,98.34L141.54,47.82A47.81,47.81,0,0,1,208.79,89.67Z"/><path class="cls-3" d="M252.88,215,150.43,263.58c-37.51,17.8-81.14-7.95-83.67-49.4L57.47,62.36C54.25,9.61,117-20.15,155.79,15.71L267.53,118.9C298,147.07,290.4,197.16,252.88,215Z"/></g></g></svg>